<svg width="18" height="11" viewBox="0 0 18 11" fill="none" xmlns="http://www.w3.org/2000/svg">
<path d="M9 0.125C9.69619 0.125 10.3639 0.401562 10.8562 0.893845C11.3484 1.38613 11.625 2.05381 11.625 2.75C11.625 3.44619 11.3484 4.11387 10.8562 4.60616C10.3639 5.09844 9.69619 5.375 9 5.375C8.30381 5.375 7.63613 5.09844 7.14384 4.60616C6.65156 4.11387 6.375 3.44619 6.375 2.75C6.375 2.05381 6.65156 1.38613 7.14384 0.893845C7.63613 0.401562 8.30381 0.125 9 0.125ZM3.75 2C4.17 2 4.56 2.1125 4.8975 2.315C4.785 3.3875 5.1 4.4525 5.745 5.285C5.37 6.005 4.62 6.5 3.75 6.5C3.15326 6.5 2.58097 6.26295 2.15901 5.84099C1.73705 5.41903 1.5 4.84674 1.5 4.25C1.5 3.65326 1.73705 3.08097 2.15901 2.65901C2.58097 2.23705 3.15326 2 3.75 2ZM14.25 2C14.8467 2 15.419 2.23705 15.841 2.65901C16.2629 3.08097 16.5 3.65326 16.5 4.25C16.5 4.84674 16.2629 5.41903 15.841 5.84099C15.419 6.26295 14.8467 6.5 14.25 6.5C13.38 6.5 12.63 6.005 12.255 5.285C12.9089 4.44081 13.2124 3.37715 13.1025 2.315C13.44 2.1125 13.83 2 14.25 2ZM4.125 9.6875C4.125 8.135 6.3075 6.875 9 6.875C11.6925 6.875 13.875 8.135 13.875 9.6875V11H4.125V9.6875ZM0 11V9.875C0 8.8325 1.4175 7.955 3.3375 7.7C2.895 8.21 2.625 8.915 2.625 9.6875V11H0ZM18 11H15.375V9.6875C15.375 8.915 15.105 8.21 14.6625 7.7C16.5825 7.955 18 8.8325 18 9.875V11Z" fill="#95969D"/>
</svg>
