<svg width="12" height="18" viewBox="0 0 12 18" fill="none" xmlns="http://www.w3.org/2000/svg">
<path d="M5.99984 4.41675C6.55237 4.41675 7.08228 4.63624 7.47298 5.02694C7.86368 5.41764 8.08317 5.94755 8.08317 6.50008C8.08317 6.77367 8.02928 7.04458 7.92459 7.29734C7.81989 7.5501 7.66643 7.77977 7.47298 7.97322C7.27952 8.16668 7.04986 8.32013 6.79709 8.42483C6.54433 8.52953 6.27342 8.58341 5.99984 8.58341C5.4473 8.58341 4.9174 8.36392 4.5267 7.97322C4.136 7.58252 3.9165 7.05262 3.9165 6.50008C3.9165 5.94755 4.136 5.41764 4.5267 5.02694C4.9174 4.63624 5.4473 4.41675 5.99984 4.41675ZM5.99984 0.666748C7.54693 0.666748 9.03066 1.28133 10.1246 2.37529C11.2186 3.46925 11.8332 4.95299 11.8332 6.50008C11.8332 10.8751 5.99984 17.3334 5.99984 17.3334C5.99984 17.3334 0.166504 10.8751 0.166504 6.50008C0.166504 4.95299 0.781085 3.46925 1.87505 2.37529C2.96901 1.28133 4.45274 0.666748 5.99984 0.666748ZM5.99984 2.33341C4.89477 2.33341 3.83496 2.7724 3.05356 3.5538C2.27216 4.3352 1.83317 5.39501 1.83317 6.50008C1.83317 7.33341 1.83317 9.00008 5.99984 14.5917C10.1665 9.00008 10.1665 7.33341 10.1665 6.50008C10.1665 5.39501 9.72752 4.3352 8.94612 3.5538C8.16471 2.7724 7.10491 2.33341 5.99984 2.33341Z" fill="white"/>
</svg>
